<svg id="logo-layer" data-name="Logo Layer" xmlns="http://www.w3.org/2000/svg" viewBox="0 0 261.66 92.42" height="40">
                      <g>
                        <path class="cls-1" fill="#FFF" d="M67.9,63.42c-2.65-.21-38-.82-38.56-.91s-.71-1.81.24-1.81c1.86,0,34.09.29,35.12.54a7.53,7.53,0,0,0-2.19-1.93c-.86-.56-1.37-.6-1.38-1-.27-8.9.45-27.56,1.41-28.68a13.63,13.63,0,0,1,6.27-3.43c.35-.38.2-1.54-.31-1.7-27.5-4-45.24-2.87-45.33-3.37-.06-.65,6-7.26,24.29-14.41,1.21-.46-3.68-3.64-4.57-4-13.41,3.8-39.07,21-38.29,22-2,2.28,7.75-3.26,14.06-6.93s12.52-7.8,13.5-7.24c-1.94,1.61-12.95,10-12.58,12.36a345.77,345.77,0,0,1,44.14,3.24c1.31.3,1.31,1,.05,1a20,20,0,0,0-5.31.25c0,10.07.39,21.29.9,31.56-2.79.05-5.86.05-8.74-.12-.27-9.78.36-28.16,1.36-29.4a5.68,5.68,0,0,1,3.12-1.78l.71-.62a21.34,21.34,0,0,0-7.78.93c-.09,9.68.08,22.62.81,30.09,0,.45.12.75-.38.79l-7.56-.11c-.45,0-.47-.27-.5-.57,0-.63.15-27.6.83-29.51A4.72,4.72,0,0,1,44.1,27l1-.86a17.58,17.58,0,0,0-7.14,1.12c-.23,10.61.23,26.62.57,30.62,0,.57-.23.51-.51.52s-7.9-.09-8.25-.09a.61.61,0,0,1-.51-.35c-.4-10.23.18-17.06,1.69-30.6.21-.61,1.29-1.24,2.72-1.57l.63-1.12c-2.53.17-5.7.81-7.18,1.79-.15,9.43-.08,21.26.16,31.05,0,.76-.41.77-.86.78a22.52,22.52,0,0,0-3.11.15S3.94,64,2.81,64.73C2.28,65,2.1,66,2.1,66H70.68A10.19,10.19,0,0,0,67.9,63.42Z" transform="translate(-2.1 -2.67)"></path>
                        <path class="cls-1" fill="#FFF" d="M50.26,9.08C56.57,12.89,62.92,17.37,69,21.76c.16.28-.44.64-.87.4-8.28-4.46-15.28-8.35-22-10.86-.66-.29-1.07-.76-.69-1.14,1.24-.79,3.45-1.8,4.82-1.08" transform="translate(-2.1 -2.67)"></path>
                        <g>
                          <g>
                            <path class="cls-1" fill="#FFF" d="M78.48,44c-.14-.7,0-1.08.39-1.08s.5.41.67,1.15A7.52,7.52,0,0,0,87,49.33c3.35,0,6.63-1.85,6.63-5.52,0-6.74-14.32-3-14.32-12.09,0-4.44,3.77-6.57,7.83-6.57A12.6,12.6,0,0,1,93,26.41c.31,0,.39-.39.74-.39s.39.11.42.5l.53,4.74c0,.29,0,.53-.39.53s-.63-.74-.74-1.05a6.74,6.74,0,0,0-6.73-4.54c-2.79,0-5.76,1.33-5.76,4.54,0,6.57,14.33,2.73,14.33,12.37,0,2.94-2.09,7.34-10.1,7.34-2.6,0-5.81-1.29-5.95-1.92Z" transform="translate(-2.1 -2.67)"></path>
                            <path class="cls-1" fill="#FFF" d="M97.06,37.69c0-7.26,5.72-12.54,13-12.54s12.73,5.14,12.73,12.37c0,7.86-5.47,12.93-13.33,12.93C101.75,50.45,97.06,45.07,97.06,37.69Zm2.58-1c0,6.47,4.27,12.72,11.25,12.72,5.15,0,9.28-4.09,9.28-10.55S115.83,26.3,109,26.3C103,26.3,99.64,31.16,99.64,36.68Z" transform="translate(-2.1 -2.67)"></path>
                            <path class="cls-1" fill="#FFF" d="M127.89,40.88c0,5.59,3.67,8.14,8.43,8.14,6.64,0,8.16-4.34,8.16-8.46V29.24c0-3.57-3.29-2.1-3.29-3.43,0-.17.25-.35.35-.35,1.38,0,2.76.15,4.13.15.67,0,1.31-.15,1.94-.15.18,0,.46.18.46.39,0,1-2.08.21-2.08,3.42V40.1c0,1.72.42,10.35-9.84,10.35-9.28,0-11-5.14-11-10.52V28.16c0-2.07-2.86-1.23-2.86-2.35,0-.24.6-.35.78-.35.91,0,1.79.15,2.75.15,1.12,0,2.25-.15,3.35-.15.17,0,1.12-.06,1.12.35,0,1-2.36,0-2.36,2.52Z" transform="translate(-2.1 -2.67)"></path>
                            <path class="cls-1" fill="#FFF" d="M158.9,29c0-.24.14-1.57-.35-1.6H152.8c-2.19,0-2.26.52-2.9,2.44-.1.35-.14.81-.59.81-.22,0-.36-.25-.36-.43l.39-3.38c0-.42,0-1.37.64-1.37,2.75,0,5.46.15,10,.15,6.39,0,9.64-.15,10.34-.15s1,.21,1,1l.18,2.79c0,.35.07.77-.39.77-1.3,0,.6-2.65-3-2.65h-5c-1.59,0-1.41-.14-1.41,1.71V46.92c0,2.93,2.85,1.78,2.85,2.86,0,.11,0,.42-.31.42-.85,0-1.84-.14-2.86-.14a48.34,48.34,0,0,0-4.84.14c-.31,0-.42-.1-.42-.45,0-.84,2.79-.49,2.79-2.59Z" transform="translate(-2.1 -2.67)"></path>
                            <path class="cls-1" fill="#FFF" d="M175.33,28.47c0-2.55-3.06-1.85-3.06-2.62,0-.32.28-.39.56-.39,1.31,0,2.58.15,3.88.15,1.1,0,2.19-.15,3.29-.15.59,0,.67.21.67.35,0,.71-2.55,0-2.55,2.66V36c0,.48,0,.63.53.63h12.92c.35,0,.28-.88.28-1V28.47c0-2.41-2.65-1.82-2.65-2.62,0-.21.07-.39.6-.39,1.16,0,3,.15,3.67.15,1.3,0,1.83-.15,2.54-.15.92,0,1,.35,1,.56,0,.63-2.36,0-2.36,2.45V47c0,2.55,3.21,1.92,3.21,2.79,0,.11-.14.42-.38.42-1,0-2.05-.14-3.32-.14-2.26,0-3.24.14-3.92.14-.32,0-.85.11-.85-.45,0-.84,2.48-.35,2.48-2.55V38.81c0-.56.14-.87-.28-.87h-13c-.42,0-.42.21-.42.59v8.7c0,2.38,3.35,1.61,3.35,2.7,0,.17-.24.27-.56.27s-3-.14-4.9-.14a18.72,18.72,0,0,0-3,.14c-.28,0-.38-.17-.38-.52,0-1,2.74.14,2.74-3.32Z" transform="translate(-2.1 -2.67)"></path>
                            <path class="cls-1" fill="#FFF" d="M205.25,35.63c0,1.19-.07,1.19,1.34,1.19h3.81c3.67,0,2.72-2.8,3.57-2.8.28,0,.38.39.38.67,0,1.22-.07,2.41-.07,3.53,0,.91.07,1.82.07,2.76,0,.32-.14.45-.38.45-1.1,0,.1-3.07-2.86-3.07h-5.22c-.75,0-.64.6-.64,1.12v6.43c0,2.06-.28,2.89,2.68,2.89,8.15,0,9.35-3.59,9.81-3.59.25,0,.28.35.28.41a5.56,5.56,0,0,1-1.76,3.4c-1.13,1.25-1.91,1.18-3.46,1.18-2.68,0-5.36-.2-8-.14-1.42,0-2.9.14-4.31.14-.32,0-.52-.07-.52-.35s.42-.34,1.55-.91c.91-.41,1-1.39,1-3V30c0-1.57,0-3.25-1.9-3.52-.28-.08-1.06-.15-1.06-.57,0-.27.21-.42,1.23-.42,6.67,0,8.51.15,10,.15.71,0,3.95-.15,5-.15.28,0,.36.35.36.78,0,3.87-.5,4.15-.71,4.15-.85,0-.28-1.67-.85-2.48-.91-1.19-4.58-1-6-1-3.38,0-3.31-.14-3.31,2.21Z" transform="translate(-2.1 -2.67)"></path>
                            <path class="cls-1" fill="#FFF" d="M263.4,25.46c-.85,0-2.37.15-3.57.15s-2.15-.15-3.21-.15a.34.34,0,0,0-.38.35c0,1.16,3.91-.17,3.91,4.4V44.82c0,.29,0,.39-.1.39s-.22-.14-.43-.39L242.8,26.27c-.21-.25-.54-.81-.92-.81-.53,0-1.1.15-1.63.15s-1.09-.15-1.65-.15c-.18,0-.53.15-.53.35,0,1.3,4.27-.73,4.27,6.54V45.24c0,2.93-.66,3.83-2,3.86-1.11-.07-1.8-1.15-2.82-2.71l-5.89-8.83a6.77,6.77,0,0,0,4.44-6.05c0-6.74-7.79-6.05-8.36-6.05-1.83,0-3.84.15-5.89.15a19,19,0,0,1-2.26-.15c-.42,0-.7.21-.7.42,0,1.19,3-.24,3,3.11V46.78c0,2.65-2.58,2.16-2.58,3a.36.36,0,0,0,.36.38c1.34,0,2.68-.14,4-.14,2.94,0,3.75.14,4.07.14s.59.07.59-.27c0-1.19-3.66-.11-3.66-3.12V39.44c0-.35-.21-1,.91-1,4,0,3.42-.1,4.7,1.85l3.91,6.12c1.34,2,2.72,3.77,5.29,3.77h7.07c.35,0,.39-.27.39-.45,0-1-3.11.28-3.11-2.87V32.59c0-.7.11-.8.25-.8s.67.59.74.67L260,49.37c.74.8,1.09,1,1.34,1s.32-.49.32-1.5V28.61c0-2.55,2.08-1.92,2.08-2.83A.31.31,0,0,0,263.4,25.46ZM228.53,37.27c-1.66,0-3.84.18-3.84-.49V27.91c0-1.36.73-1.29,2-1.29,3.45,0,6.74,1.43,6.74,5.69A4.58,4.58,0,0,1,228.53,37.27Z" transform="translate(-2.1 -2.67)"></path>
                          </g>
                          <g>
                            <g>
                              <path class="cls-1" fill="#FFF" d="M94.51,55.6c-1.34,0-2.34.07-3.37.07-.46,0-.91-.07-1.39-.07-.09,0-.21,0-.21.16,0,.42,1.27-.08,1.27,1.49v7.68c0,.86-.41,1.16-.7,1.2-.68.08-1,0-1.33-.5A10.11,10.11,0,0,1,88,63.87l-3.22-7.94c-.05-.12-.16-.57-.33-.57s-.24.24-1.16,2.19l-3.7,7.86c-.4.88-1.13.62-1.13.94,0,.1,0,.17.14.17.41,0,.82-.06,1.24-.06s.87.06,1.3.06c.2,0,.42,0,.42-.23s-1.1.06-1.1-1a1.52,1.52,0,0,1,.11-.55l1-2.16c.15-.32.43-.32.73-.32h3.4c.44,0,.53.23.69.59l.49,1.26a6.26,6.26,0,0,1,.48,1.47c0,.58-.93.43-.93.8,0,.15.25.15.34.15.42,0,.84-.06,1.25-.06H91.6c.78,0,1.57.06,2.37.06,4.28,0,6-2.45,6-6C99.94,57.67,97.24,55.6,94.51,55.6Zm-9,6H82.41c-.2,0-.32-.07-.2-.28L84,57.55c.1-.19.17-.19.25,0l1.52,3.72C85.79,61.47,85.81,61.58,85.47,61.58Zm9,4.53a3.91,3.91,0,0,1-2.39-.7c-.14-.13-.09-.88-.09-1.12V57c0-.72.06-1,1.53-1a5,5,0,0,1,5.23,5.38C98.79,64.93,96.71,66.11,94.51,66.11Z" transform="translate(-2.1 -2.67)"></path>
                              <path class="cls-1" fill="#FFF" d="M100.18,56.79c-.39-.92-1.19-.63-1.19-1a.2.2,0,0,1,.22-.22c.47,0,1,.07,1.42.07s1-.07,1.22-.07.22.07.22.16-.63.23-.63.79a1.72,1.72,0,0,0,.13.6l2.71,6.35c.34.82.45,1.18.62,1.18s.2-.26.28-.44l2.7-6.61a2.24,2.24,0,0,0,.21-1.05c0-.71-1-.42-1-.77,0-.16.08-.21.23-.21.35,0,.69.07,1,.07.75,0,1-.07,1.2-.07s.26.07.26.21c0,.33-.43-.05-.86,1l-3.86,9.09c-.17.38-.28.89-.51.89s-.43-.65-.58-1Z" transform="translate(-2.1 -2.67)"></path>
                              <path class="cls-1" fill="#FFF" d="M113.06,60.09c0,.53,0,.53.59.53h1.67c1.61,0,1.2-1.24,1.57-1.24.12,0,.17.17.17.29,0,.54,0,1.07,0,1.56s0,.81,0,1.22c0,.14-.07.2-.17.2-.48,0,0-1.35-1.26-1.35h-2.29c-.32,0-.28.26-.28.49v2.84c0,.91-.12,1.28,1.18,1.28,3.58,0,4.1-1.59,4.31-1.59s.12.15.12.18a2.44,2.44,0,0,1-.78,1.5c-.49.55-.83.52-1.51.52-1.18,0-2.36-.09-3.53-.06-.62,0-1.27.06-1.89.06-.14,0-.24,0-.24-.15s.19-.16.69-.4.43-.62.43-1.34v-7c0-.69,0-1.43-.84-1.55-.12,0-.46-.06-.46-.25s.1-.19.54-.19c2.93,0,3.73.07,4.38.07.31,0,1.73-.07,2.22-.07.12,0,.15.16.15.34,0,1.72-.21,1.84-.31,1.84-.37,0-.12-.74-.37-1.09-.4-.53-2-.44-2.63-.44-1.49,0-1.46-.06-1.46,1Z" transform="translate(-2.1 -2.67)"></path>
                              <path class="cls-1" fill="#FFF" d="M120.81,58.64c0-3.21-1.88-2.31-1.88-2.88,0-.09.16-.16.23-.16.25,0,.49.07.73.07s.48-.07.71-.07.31.25.41.36l7.38,8.19c.1.11.16.17.19.17s0,0,0-.17V57.7c0-2-1.73-1.43-1.73-1.94,0-.11.08-.16.18-.16.46,0,.91.07,1.41.07s1.19-.07,1.56-.07a.13.13,0,0,1,.15.14c0,.4-.91.13-.91,1.25v8.93c0,.45,0,.66-.14.66s-.26-.07-.59-.43l-6.66-7.46s-.21-.3-.32-.3-.11,0-.11.36v6.31c0,1.39,1.37.85,1.37,1.27a.17.17,0,0,1-.18.19c-.37,0-.8-.06-1.56-.06-.54,0-1.35.06-1.45.06s-.21-.09-.21-.17c0-.53,1.37.14,1.37-2Z" transform="translate(-2.1 -2.67)"></path>
                              <path class="cls-1" fill="#FFF" d="M135.51,57.16c0-.1.06-.69-.16-.71h-2.52c-1,0-1,.24-1.27,1.08-.05.16-.06.36-.27.36s-.15-.11-.15-.19l.17-1.5c0-.18,0-.6.28-.6,1.21,0,2.4.07,4.39.07,2.81,0,4.23-.07,4.54-.07s.43.1.45.45l.08,1.24c0,.15,0,.34-.17.34-.57,0,.26-1.18-1.32-1.18h-2.21c-.7,0-.62-.06-.62.76v7.86c0,1.3,1.25.79,1.25,1.27,0,0,0,.18-.14.18-.36,0-.8-.06-1.25-.06-1.74,0-2,.06-2.12.06s-.18,0-.18-.19c0-.38,1.22-.22,1.22-1.15Z" transform="translate(-2.1 -2.67)"></path>
                              <path class="cls-1" fill="#FFF" d="M143.13,56.93c0-1.12-1.25-.82-1.25-1.16,0-.13,0-.17.15-.17.57,0,1.13.07,1.7.07s1-.07,1.44-.07c.26,0,.3,0,.3.16,0,.37-1.11,0-1.11,1.17v8.28c0,1.05,1.37.7,1.37,1.16,0,.11,0,.15-.3.15s-1-.06-1.7-.06c-.94,0-1.26.06-1.48.06s-.33-.07-.33-.23c0-.45,1.21.06,1.21-1.46Z" transform="translate(-2.1 -2.67)"></path>
                              <path class="cls-1" fill="#FFF" d="M147.1,63.79c-.07-.31,0-.47.17-.47s.21.18.29.5a3.32,3.32,0,0,0,3.25,2.32c1.47,0,2.91-.82,2.91-2.44,0-3-6.29-1.31-6.29-5.34,0-2,1.66-2.89,3.44-2.89a5.58,5.58,0,0,1,2.61.55c.13,0,.16-.17.32-.17s.17,0,.19.22l.23,2.09c0,.13,0,.23-.17.23s-.28-.32-.33-.46a3,3,0,0,0-2.95-2c-1.23,0-2.53.58-2.53,2,0,2.9,6.29,1.2,6.29,5.46,0,1.3-.92,3.24-4.43,3.24a4,4,0,0,1-2.62-.85Z" transform="translate(-2.1 -2.67)"></path>
                              <path class="cls-1" fill="#FFF" d="M159.61,57.16c0-.1.06-.69-.15-.71h-2.53c-1,0-1,.24-1.27,1.08,0,.16-.06.36-.26.36s-.15-.11-.15-.19l.17-1.5c0-.18,0-.6.27-.6,1.21,0,2.41.07,4.4.07,2.81,0,4.23-.07,4.54-.07s.43.1.45.45l.07,1.24c0,.15,0,.34-.16.34-.58,0,.26-1.18-1.32-1.18h-2.21c-.71,0-.62-.06-.62.76v7.86c0,1.3,1.25.79,1.25,1.27,0,0,0,.18-.14.18-.37,0-.81-.06-1.25-.06-1.74,0-2,.06-2.13.06s-.18,0-.18-.19c0-.38,1.22-.22,1.22-1.15Z" transform="translate(-2.1 -2.67)"></path>
                            </g>
                            <g>
                              <path class="cls-1" fill="#FFF" d="M173.86,62.4a3.36,3.36,0,0,0,3.7,3.6c2.91,0,3.58-1.91,3.58-3.73v-5c0-1.57-1.45-.93-1.45-1.51,0-.08.12-.16.16-.16.6,0,1.21.07,1.81.07.3,0,.57-.07.85-.07.08,0,.2.08.2.17,0,.43-.91.1-.91,1.52v4.77c0,.76.19,4.57-4.32,4.57-4.07,0-4.85-2.27-4.85-4.64v-5.2c0-.91-1.25-.54-1.25-1,0-.11.27-.16.34-.16.41,0,.79.07,1.21.07s1-.07,1.47-.07c.08,0,.49,0,.49.16,0,.43-1,0-1,1.11Z" transform="translate(-2.1 -2.67)"></path>
                              <path class="cls-1" fill="#FFF" d="M185.25,58.64c0-3.21-1.87-2.31-1.87-2.88,0-.09.16-.16.23-.16.25,0,.48.07.73.07s.48-.07.71-.07.31.25.4.36l7.39,8.19c.1.11.16.17.19.17s.05,0,.05-.17V57.7c0-2-1.72-1.43-1.72-1.94a.15.15,0,0,1,.16-.16c.47,0,.92.07,1.42.07s1.19-.07,1.56-.07a.13.13,0,0,1,.15.14c0,.4-.91.13-.91,1.25v8.93c0,.45,0,.66-.14.66s-.27-.07-.59-.43l-6.66-7.46s-.21-.3-.32-.3-.11,0-.11.36v6.31c0,1.39,1.36.85,1.36,1.27,0,.07,0,.19-.17.19-.37,0-.8-.06-1.56-.06-.54,0-1.35.06-1.46.06s-.2-.09-.2-.17c0-.53,1.36.14,1.36-2Z" transform="translate(-2.1 -2.67)"></path>
                              <path class="cls-1" fill="#FFF" d="M197.34,56.93c0-1.12-1.26-.82-1.26-1.16,0-.13,0-.17.16-.17.57,0,1.13.07,1.7.07s1-.07,1.44-.07c.25,0,.3,0,.3.16,0,.37-1.12,0-1.12,1.17v8.28c0,1.05,1.38.7,1.38,1.16,0,.11-.05.15-.31.15s-1-.06-1.69-.06c-.95,0-1.26.06-1.48.06s-.33-.07-.33-.23c0-.45,1.21.06,1.21-1.46Z" transform="translate(-2.1 -2.67)"></path>
                              <path class="cls-1" fill="#FFF" d="M201.82,56.79c-.39-.92-1.19-.63-1.19-1a.2.2,0,0,1,.21-.22c.48,0,1,.07,1.43.07s1-.07,1.22-.07.22.07.22.16-.64.23-.64.79a1.51,1.51,0,0,0,.15.6l2.7,6.35c.34.82.45,1.18.62,1.18s.21-.26.28-.44l2.69-6.61a2.25,2.25,0,0,0,.22-1.05c0-.71-1-.42-1-.77,0-.16.08-.21.23-.21.34,0,.68.07,1,.07.75,0,1-.07,1.2-.07s.26.07.26.21c0,.33-.43-.05-.86,1l-3.87,9.09c-.16.38-.27.89-.5.89s-.44-.65-.57-1Z" transform="translate(-2.1 -2.67)"></path>
                              <path class="cls-1" fill="#FFF" d="M214.71,60.09c0,.53,0,.53.58.53H217c1.61,0,1.2-1.24,1.57-1.24.12,0,.17.17.17.29,0,.54,0,1.07,0,1.56s0,.81,0,1.22c0,.14-.07.2-.17.2-.49,0,0-1.35-1.26-1.35H215c-.33,0-.27.26-.27.49v2.84c0,.91-.13,1.28,1.17,1.28,3.57,0,4.1-1.59,4.3-1.59s.13.15.13.18a2.48,2.48,0,0,1-.77,1.5c-.5.55-.84.52-1.52.52-1.18,0-2.36-.09-3.54-.06-.61,0-1.26.06-1.88.06-.14,0-.24,0-.24-.15s.19-.16.68-.4.44-.62.44-1.34v-7c0-.69,0-1.43-.84-1.55-.12,0-.47-.06-.47-.25s.1-.19.55-.19c2.92,0,3.73.07,4.38.07.31,0,1.74-.07,2.21-.07.13,0,.16.16.16.34,0,1.72-.22,1.84-.31,1.84-.37,0-.12-.74-.37-1.09-.4-.53-2-.44-2.63-.44-1.49,0-1.45-.06-1.45,1Z" transform="translate(-2.1 -2.67)"></path>
                              <path class="cls-1" fill="#FFF" d="M238.83,56.93c0-1.12-1.26-.82-1.26-1.16,0-.13,0-.17.16-.17.57,0,1.13.07,1.7.07s1-.07,1.44-.07c.25,0,.3,0,.3.16,0,.37-1.12,0-1.12,1.17v8.28c0,1.05,1.38.7,1.38,1.16,0,.11-.05.15-.31.15s-1-.06-1.69-.06c-.94,0-1.27.06-1.49.06s-.32-.07-.32-.23c0-.45,1.21.06,1.21-1.46Z" transform="translate(-2.1 -2.67)"></path>
                              <path class="cls-1" fill="#FFF" d="M246.78,57.16c0-.1.06-.69-.15-.71H244.1c-.95,0-1,.24-1.26,1.08-.05.16-.07.36-.27.36s-.15-.11-.15-.19l.17-1.5c0-.18,0-.6.28-.6,1.21,0,2.4.07,4.39.07,2.81,0,4.23-.07,4.54-.07s.43.1.45.45l.08,1.24c0,.15,0,.34-.17.34-.58,0,.26-1.18-1.32-1.18h-2.21c-.7,0-.62-.06-.62.76v7.86c0,1.3,1.25.79,1.25,1.27,0,0,0,.18-.14.18-.37,0-.81-.06-1.25-.06-1.73,0-2,.06-2.12.06s-.19,0-.19-.19c0-.38,1.22-.22,1.22-1.15Z" transform="translate(-2.1 -2.67)"></path>
                              <path class="cls-1" fill="#FFF" d="M254.06,56.58c-.4-.67-1.15-.48-1.15-.74s.08-.24.19-.24c.42,0,.72.07,1.76.07.52,0,.94-.07,1.09-.07s.3,0,.3.16-.73.28-.73.72a1.15,1.15,0,0,0,.28.63l1.87,3c.13.19.22.28.31.28s.17-.11.29-.31l1.6-2.58a1.38,1.38,0,0,0,.32-.84c0-.76-1.16-.44-1.16-.8,0-.2.16-.24.33-.24.37,0,.76.07,1.13.07s.9-.07,1.34-.07a.2.2,0,0,1,.18.19c0,.17-.27.23-.37.29a2.82,2.82,0,0,0-.87,1.07l-2.17,3.36c-.25.38-.37.46-.37.69V65c0,1.35,1.27.91,1.27,1.39,0,.14-.14.15-.36.15s-1.13-.06-1.7-.06-1.25.06-1.39.06-.24,0-.24-.18c0-.43,1.2,0,1.2-1.13V61.48a1.69,1.69,0,0,0-.36-.79Z" transform="translate(-2.1 -2.67)"></path>
                              <path class="cls-1" fill="#FFF" d="M230.49,57.93c0-1.42,1.3-2,2.52-2a3,3,0,0,1,3,2c0,.14.15.47.33.47s.18-.11.16-.23l-.23-2.1c0-.17-.09-.22-.19-.22s-.18.17-.32.17a5.41,5.41,0,0,0-2.59-.56c-1.78,0-3.43.94-3.43,2.9,0,4,6.27,2.37,6.27,5.35,0,1.62-1.44,2.39-2.91,2.44a4.4,4.4,0,0,1-4.4-1.88l-2.19-3.33a3,3,0,0,0,1.94-2.67c0-3-3.41-2.67-3.66-2.67-.8,0-1.68.07-2.58.07a7.33,7.33,0,0,1-1-.07c-.19,0-.32.09-.32.19,0,.52,1.33-.11,1.33,1.37V65c0,1.18-1.12,1-1.12,1.35a.16.16,0,0,0,.15.17c.59,0,1.17-.07,1.76-.07,1.28,0,1.64.07,1.78.07s.26,0,.26-.13c0-.52-1.61,0-1.61-1.37V61.78c0-.15-.09-.43.41-.43,1.72,0,1.49-.05,2.05.82l1.72,2.7a3.24,3.24,0,0,0,1.81,1.6h0a14.31,14.31,0,0,0,3.06.23c3.68,0,4.31-2,4.31-3.3C236.77,59.14,230.49,60.84,230.49,57.93Zm-5.39,2.89c-.73,0-1.69.08-1.69-.21V56.68c0-.6.33-.57.89-.57,1.51,0,2.94.63,2.94,2.52A2,2,0,0,1,225.1,60.82Z" transform="translate(-2.1 -2.67)"></path>
                            </g>
                          </g>
                        </g>
                        <g>
                          <path class="cls-1" fill="#FFF" d="M108.46,87.62h3.78a2.48,2.48,0,0,1,2.7,2.5c0,1.79-1.19,2.62-2.88,2.62h-1.33V95h-2.26ZM110.72,91h.88c.58,0,1.2,0,1.2-.78s-.51-.71-1.07-.71h-1Z" transform="translate(-2.1 -2.67)"></path>
                          <path class="cls-1" fill="#FFF" d="M118.47,95.09a2.81,2.81,0,1,1,2.9-2.82A2.68,2.68,0,0,1,118.47,95.09Zm0-4.13c-.77,0-.87.76-.87,1.32s.1,1.33.88,1.33.87-.77.87-1.33S119.23,91,118.46,91Z" transform="translate(-2.1 -2.67)"></path>
                          <path class="cls-1" fill="#FFF" d="M129.15,94.93h-2.09l-.78-3.28h0l-.79,3.28h-2.09l-1.68-5.33h2.12l.8,3.31h0l.67-3.31h1.91l.71,3.3h0l.74-3.3h2.12Z" transform="translate(-2.1 -2.67)"></path>
                          <path class="cls-1" fill="#FFF" d="M133.14,92.72a1,1,0,0,0,1,1,1.07,1.07,0,0,0,.86-.39h1.9A3,3,0,1,1,134,89.45c2.12,0,3,1.18,3,3.26Zm2-1.07a.87.87,0,0,0-.89-.89,1,1,0,0,0-1,.9Z" transform="translate(-2.1 -2.67)"></path>
                          <path class="cls-1" fill="#FFF" d="M138,89.58h2v.85h0a1.56,1.56,0,0,1,1.5-1,2.47,2.47,0,0,1,.6.08v1.8a2.12,2.12,0,0,0-.8-.13c-.8,0-1.24.48-1.24,1.62v2.1h-2Z" transform="translate(-2.1 -2.67)"></path>
                          <path class="cls-1" fill="#FFF" d="M146.55,90.82h-.83V89.57h.83a2,2,0,0,1,.42-1.51,2.3,2.3,0,0,1,1.78-.51c.31,0,.61,0,.92,0V89a4.13,4.13,0,0,0-.49-.07c-.5,0-.66.15-.63.64h1.07v1.26h-1V94.9h-2Z" transform="translate(-2.1 -2.67)"></path>
                          <path class="cls-1" fill="#FFF" d="M153,95a2.81,2.81,0,1,1,2.9-2.82A2.67,2.67,0,0,1,153,95Zm0-4.13c-.78,0-.87.76-.87,1.32s.1,1.33.87,1.33.87-.77.87-1.33S153.78,90.9,153,90.9Z" transform="translate(-2.1 -2.67)"></path>
                          <path class="cls-1" fill="#FFF" d="M156.91,89.55h2v.86h0a1.56,1.56,0,0,1,1.5-1,2.41,2.41,0,0,1,.6.08v1.8a2.08,2.08,0,0,0-.8-.13c-.8,0-1.23.47-1.23,1.62v2.1h-2Z" transform="translate(-2.1 -2.67)"></path>
                          <path class="cls-1" fill="#FFF" d="M165.13,87.52h3.22l1.06,4.32h0l1-4.32h3.23v7.35h-2.14V90.15h0l-1.27,4.72h-1.69l-1.28-4.71h0v4.71h-2.14Z" transform="translate(-2.1 -2.67)"></path>
                          <path class="cls-1" fill="#FFF" d="M177,88.94h-2V87.51h2Zm-2,.58h2v5.34h-2Z" transform="translate(-2.1 -2.67)"></path>
                          <path class="cls-1" fill="#FFF" d="M178.28,89.51h2v.68h0a2,2,0,0,1,1.74-.82,1.72,1.72,0,0,1,1.84,1.81v3.67h-2v-2.8c0-.62-.07-1-.67-1-.35,0-.81.17-.81,1v2.82h-2Z" transform="translate(-2.1 -2.67)"></path>
                          <path class="cls-1" fill="#FFF" d="M190.61,94.83h-2v-.58h0a1.63,1.63,0,0,1-1.56.72c-1.52,0-2.25-1.49-2.25-2.82s.48-2.78,2.26-2.79a1.76,1.76,0,0,1,1.47.72h0V87.49h2Zm-2.86-4c-.73,0-.9.69-.9,1.32s.17,1.33.9,1.33.9-.69.9-1.33S188.48,90.84,187.75,90.84Z" transform="translate(-2.1 -2.67)"></path>
                          <path class="cls-1" fill="#FFF" d="M199.78,94.3a3.08,3.08,0,0,1-2.1.69,2.35,2.35,0,0,1-2.5-2.38,2.54,2.54,0,0,1,1.63-2.07,2,2,0,0,1-.57-1.34,2,2,0,0,1,2.17-1.91c1.37,0,2.36.6,2.36,1.9a2.3,2.3,0,0,1-1.34,1.9l.56.7a1.26,1.26,0,0,0,.27-.56H202A3.38,3.38,0,0,1,201.1,93l1.5,1.8h-2.4Zm-1.94-2.42c-.29.16-.7.43-.7.8a.71.71,0,0,0,.7.69,1.32,1.32,0,0,0,.86-.45Zm.6-2a.92.92,0,0,0,.58-.76.49.49,0,0,0-.49-.5.54.54,0,0,0-.55.51C198,89.43,198.25,89.7,198.44,89.92Z" transform="translate(-2.1 -2.67)"></path>
                          <path class="cls-1" fill="#FFF" d="M208.47,92.33a1.34,1.34,0,0,0,.08.48c.16.45.66.54,1.08.54s.94-.13.93-.67c0-.38-.31-.49-1.58-.84s-2.49-.65-2.5-2.13c0-1.7,1.45-2.43,3-2.44s3,.61,3.08,2.4h-2.14a.58.58,0,0,0-.27-.58,1.16,1.16,0,0,0-.67-.19c-.31,0-.82.09-.82.5s1.1.63,2.13.92,2.07.77,2.08,2.12c0,1.91-1.76,2.53-3.39,2.54-.84,0-3.22-.3-3.24-2.64Z" transform="translate(-2.1 -2.67)"></path>
                          <path class="cls-1" fill="#FFF" d="M216.29,94.92a2.81,2.81,0,1,1,2.91-2.81A2.68,2.68,0,0,1,216.29,94.92Zm0-4.13c-.77,0-.87.76-.87,1.32s.11,1.33.88,1.33.87-.76.87-1.33S217.05,90.79,216.28,90.79Z" transform="translate(-2.1 -2.67)"></path>
                          <path class="cls-1" fill="#FFF" d="M225.75,94.77h-2V94.1h0a2,2,0,0,1-1.74.81,1.72,1.72,0,0,1-1.83-1.81V89.44h2v2.81c0,.61.08,1,.67,1,.35,0,.82-.17.81-1V89.43h2Z" transform="translate(-2.1 -2.67)"></path>
                          <path class="cls-1" fill="#FFF" d="M227,87.42h2v7.35h-2Z" transform="translate(-2.1 -2.67)"></path>
                        </g>
                        <ellipse class="cls-1" fill="#FFF" cx="166.71" cy="74.58" rx="79.43" ry="1"></ellipse>
                      </g>
                    </svg>